<?xml version="1.0" encoding="iso-8859-1"?>
<!-- Uploaded to: SVG Repo, www.svgrepo.com, Generator: SVG Repo Mixer Tools -->
<svg height="800px" width="800px" version="1.1" id="Capa_1" xmlns="http://www.w3.org/2000/svg" xmlns:xlink="http://www.w3.org/1999/xlink" 
	 viewBox="0 0 27.193 27.193" xml:space="preserve">
<g>
	<g id="c51_box">
		<path style="fill:#030104;" d="M0,26.982h27.193V8.406H0V26.982z M8.328,18.476c0.834,0,2.164,0,2.164,0s0-0.363,0-0.916
			c0-1.712,0-5.04,0-6.312c0,0-0.009-0.298,0.377-0.298c0.388,0,4.777,0,5.318,0c0.54,0,0.447,0.356,0.447,0.356
			c0,1.309,0,4.529,0,6.298c0,0.618,0,1.021,0,1.021s1.657,0,2.345,0c0.687,0,0.055,0.598,0.055,0.598l-5.169,5.029
			c0,0-0.344,0.398-0.701,0.042c-0.492-0.494-5.041-5.192-5.041-5.192S7.492,18.476,8.328,18.476z"/>
		<polygon style="fill:#030104;" points="12.793,0.212 2.307,0.212 0.244,7.315 12.31,7.315 		"/>
		<polygon style="fill:#030104;" points="27.193,7.315 24.732,0.212 14.399,0.212 15.02,7.315 		"/>
	</g>
</g>
</svg>