<?xml version="1.0" encoding="iso-8859-1"?>
<!-- Uploaded to: SVG Repo, www.svgrepo.com, Generator: SVG Repo Mixer Tools -->
<!DOCTYPE svg PUBLIC "-//W3C//DTD SVG 1.1//EN" "http://www.w3.org/Graphics/SVG/1.1/DTD/svg11.dtd">
<svg fill="#000000" height="800px" width="800px" version="1.1" id="Capa_1" xmlns="http://www.w3.org/2000/svg" xmlns:xlink="http://www.w3.org/1999/xlink" 
	 viewBox="0 0 437.761 437.761" xml:space="preserve">
<g>
	<g>
		<path d="M409.262,94.255H138.88c-8.007,0-15.624,3.367-21.041,9.264c-5.387,5.896-8.051,13.798-7.363,21.76l24.768,278.836
			c1.302,14.712,13.619,25.979,28.389,25.979h220.875c14.772,0,27.073-11.268,28.391-25.979l24.753-278.836
			c0.703-7.962-1.976-15.864-7.364-21.76C424.885,97.623,417.267,94.255,409.262,94.255z M201.614,355.657
			c-0.479,0.029-0.928,0.044-1.376,0.044c-9.309,0-17.181-7.169-17.884-16.596l-9.653-127.207
			c-0.748-9.877,6.645-18.497,16.537-19.245c9.923-0.778,18.512,6.646,19.261,16.537l9.639,127.207
			C218.9,346.289,211.492,354.909,201.614,355.657z M291.722,345.944c0,9.923-8.036,17.943-17.943,17.943
			c-9.922,0-17.958-8.02-17.958-17.943V178.421c0-9.923,8.036-17.943,17.958-17.943c9.907,0,17.943,8.02,17.943,17.943V345.944z
			 M365.772,339.105c-0.703,9.427-8.575,16.596-17.884,16.596c-0.449,0-0.898-0.015-1.377-0.044
			c-9.877-0.748-17.285-9.368-16.521-19.26l9.637-127.207c0.748-9.892,9.398-17.347,19.26-16.537
			c9.895,0.748,17.287,9.368,16.537,19.245L365.772,339.105z"/>
	</g>
	<g>
		<path d="M22.328,115.851v52.887C9.564,171.567,0,182.925,0,196.544v123.15c0,13.618,9.564,24.978,22.328,27.791v52.889
			c0,16.91,13.739,30.648,30.649,30.648c16.941,0,30.649-13.738,30.649-30.648V115.851c0-16.912-13.708-30.649-30.649-30.649
			C36.067,85.202,22.328,98.939,22.328,115.851z"/>
	</g>
	<g>
		<path d="M379.628,44.839h-16.43c-5.087,0-9.511-3.439-10.779-8.365c-4.182-16.251-17.157-29.736-36.213-29.736
			c-18.47,0-32.253,13.205-36.291,29.621c-1.224,4.974-5.685,8.48-10.807,8.48h-28.765c-5.191,0-10.16-2.066-13.813-5.719
			l-17.137-17.133c-4.039-4.055-9.531-6.316-15.25-6.316c-5.715,0-11.191,2.262-15.234,6.316l-28.328,28.328
			c-7.902,7.902-7.902,20.715,0,28.613h248.176V63.964C398.757,53.398,390.194,44.839,379.628,44.839z"/>
	</g>
</g>
</svg>